<?xml version="1.0" standalone="no"?>
<!DOCTYPE svg PUBLIC "-//W3C//DTD SVG 20010904//EN"
 "http://www.w3.org/TR/2001/REC-SVG-20010904/DTD/svg10.dtd">
<svg version="1.0" xmlns="http://www.w3.org/2000/svg"
 width="512.000000pt" height="512.000000pt" viewBox="0 0 512.000000 512.000000"
 preserveAspectRatio="xMidYMid meet">

<g transform="translate(0.000000,512.000000) scale(0.100000,-0.100000)"
fill="#000000" stroke="none">
<path d="M950 3780 c-52 -5 -99 -11 -105 -14 -6 -2 -26 -67 -44 -143 l-34
-140 -70 -6 c-39 -3 -76 -12 -83 -19 -6 -7 -29 -72 -49 -144 l-37 -131 -54 -7
c-87 -10 -122 -32 -138 -86 -8 -25 -87 -286 -176 -579 -116 -380 -159 -536
-151 -544 11 -11 17 -10 211 42 239 63 541 106 832 118 l157 6 3 -264 3 -264
28 -60 c36 -78 104 -146 181 -182 l61 -28 1055 -3 c1048 -2 1055 -2 1124 19
61 18 78 29 137 88 58 58 70 76 88 135 19 61 21 92 21 314 l0 245 163 -6 c327
-14 632 -60 903 -138 114 -32 133 -35 139 -16 5 11 -321 1099 -345 1154 -10
24 -90 53 -145 53 l-32 0 -38 133 c-20 72 -43 138 -49 145 -7 7 -44 16 -82 19
l-70 6 -35 141 -35 141 -49 9 c-28 4 -169 9 -315 9 -225 1 -286 -3 -406 -21
-344 -54 -648 -173 -876 -345 l-78 -59 -73 55 c-231 177 -530 295 -879 348
-153 23 -505 33 -658 19z m500 -61 c256 -23 537 -98 743 -198 100 -48 253
-145 310 -195 l27 -25 0 -331 0 -330 -129 0 -130 0 -60 36 c-79 47 -258 122
-401 169 -229 74 -441 110 -705 121 -132 5 -163 4 -179 -9 -11 -8 -17 -21 -14
-29 5 -12 39 -16 175 -21 372 -14 680 -86 1003 -235 l65 -30 -330 -4 c-308 -3
-333 -5 -381 -24 -29 -12 -67 -33 -86 -47 l-34 -26 -135 8 c-158 9 -373 -1
-500 -25 -49 -9 -92 -14 -95 -12 -5 5 284 1189 292 1198 19 18 397 25 564 9z
m2703 2 c43 -3 81 -12 85 -18 12 -20 295 -1183 290 -1189 -3 -3 -43 2 -89 11
-144 27 -359 38 -509 27 -127 -10 -136 -10 -155 8 -11 10 -47 31 -80 47 l-60
28 -335 5 -335 5 94 44 c52 24 160 65 240 91 249 82 451 118 721 128 171 7
175 8 178 29 5 32 -27 37 -205 30 -247 -11 -457 -47 -682 -119 -147 -47 -331
-124 -414 -173 -58 -35 -59 -35 -183 -35 l-124 0 0 330 0 329 60 51 c222 184
628 333 1005 369 112 10 394 12 498 2z m-3407 -318 c-3 -10 -57 -227 -120
-483 -116 -468 -121 -502 -79 -486 41 16 224 46 338 56 151 13 389 5 381 -14
-3 -6 -15 -36 -28 -67 l-23 -56 -210 -6 c-217 -6 -380 -23 -562 -58 -58 -11
-107 -18 -110 -16 -7 8 318 1131 330 1139 7 4 29 8 50 8 32 0 37 -3 33 -17z
m3711 9 c12 -8 337 -1131 329 -1139 -2 -3 -51 5 -108 16 -183 37 -328 52 -553
58 l-220 6 -23 56 c-13 31 -25 61 -28 67 -8 18 230 27 379 15 110 -9 317 -44
337 -56 4 -3 14 1 23 8 15 11 7 51 -88 437 -58 234 -111 451 -119 483 l-14 57
37 0 c20 0 41 -4 48 -8z m-3952 -312 c-4 -12 -62 -214 -129 -450 -98 -342
-121 -433 -112 -446 11 -14 19 -14 92 5 191 49 472 81 712 81 l142 0 0 -48 0
-48 -208 -12 c-311 -18 -576 -57 -815 -120 -107 -29 -108 -29 -103 -8 3 12 73
244 156 516 83 272 153 503 156 512 6 19 46 36 87 37 24 1 27 -2 22 -19z
m4194 7 c21 -10 43 -76 182 -532 87 -286 159 -525 159 -532 0 -8 -13 -7 -47 4
-230 70 -587 123 -930 139 l-153 7 0 48 0 49 148 0 c81 0 199 -5 262 -10 129
-12 387 -53 470 -75 95 -25 98 -46 -48 463 l-129 452 31 0 c17 0 42 -6 55 -13z
m-1034 -538 c65 -24 133 -88 167 -156 23 -47 23 -53 26 -414 3 -353 2 -368
-18 -423 -29 -75 -100 -147 -175 -175 -55 -21 -66 -21 -1105 -21 -1026 0
-1050 0 -1103 20 -70 26 -125 75 -162 141 l-30 54 0 390 c0 389 0 390 23 434
34 62 104 127 165 150 51 20 76 20 1104 20 1040 1 1053 1 1108 -20z"/>
<path d="M1018 3424 c-16 -16 -8 -44 15 -48 12 -3 112 -7 222 -10 344 -8 622
-71 894 -202 115 -56 141 -60 141 -25 0 35 -244 145 -455 206 -176 51 -361 76
-595 82 -118 3 -218 2 -222 -3z"/>
<path d="M968 3196 c-37 -36 -15 -43 170 -49 376 -14 709 -99 1010 -258 74
-39 97 -47 108 -38 8 6 14 17 14 25 0 29 -255 150 -452 215 -217 70 -414 104
-673 115 -143 6 -163 5 -177 -10z"/>
<path d="M3690 3419 c-284 -27 -570 -108 -785 -222 -79 -41 -103 -71 -70 -83
9 -4 68 18 143 54 280 132 536 189 907 200 l210 7 0 25 0 25 -160 1 c-88 1
-198 -2 -245 -7z"/>
<path d="M3828 3199 c-305 -25 -639 -123 -900 -262 -82 -44 -98 -62 -75 -84
12 -12 33 -4 143 50 315 157 612 231 987 244 136 5 170 9 175 21 15 41 -88 51
-330 31z"/>
<path d="M1805 2518 c-3 -7 -4 -227 -3 -488 l3 -475 755 0 755 0 0 485 0 485
-753 3 c-597 2 -754 0 -757 -10z m1465 -478 l0 -450 -710 0 -710 0 0 450 0
450 710 0 710 0 0 -450z"/>
<path d="M3535 2398 c-47 -41 -28 -129 30 -144 31 -8 82 12 95 37 23 43 9 94
-31 114 -39 21 -64 19 -94 -7z m76 -28 c26 -14 25 -56 -2 -70 -25 -14 -44 -8
-59 19 -8 17 -7 24 10 41 23 23 25 23 51 10z"/>
<path d="M1477 2364 c-4 -4 -7 -29 -7 -55 l0 -48 -52 -3 -53 -3 0 -75 0 -75
52 -3 52 -3 3 -52 3 -52 70 0 70 0 3 52 3 52 52 3 52 3 0 75 0 75 -52 3 -52 3
-3 52 -3 52 -65 3 c-36 2 -69 0 -73 -4z m105 -86 l3 -53 53 -3 52 -3 0 -39 0
-39 -52 -3 -53 -3 -3 -52 c-3 -53 -3 -53 -37 -53 -34 0 -34 0 -37 53 l-3 52
-52 3 -53 3 0 39 0 39 53 3 52 3 3 53 c3 52 3 52 37 52 34 0 34 0 37 -52z"/>
<path d="M3404 2266 c-73 -62 5 -179 89 -134 53 28 64 92 22 133 -31 32 -75
32 -111 1z m84 -28 c34 -34 -6 -90 -48 -68 -35 19 -20 80 20 80 9 0 21 -5 28
-12z"/>
<path d="M3666 2267 c-39 -39 -38 -90 1 -126 52 -46 133 -7 133 64 0 44 -27
74 -72 81 -30 5 -41 2 -62 -19z m75 -27 c28 -16 25 -58 -6 -72 -19 -8 -28 -8
-40 2 -18 15 -20 51 -3 68 15 15 24 15 49 2z"/>
<path d="M3534 2136 c-54 -46 -30 -127 42 -142 24 -4 37 0 62 21 42 35 44 81
6 119 -33 33 -74 34 -110 2z m77 -26 c28 -16 25 -58 -6 -72 -19 -8 -28 -8 -40
2 -18 15 -20 51 -3 68 15 15 24 15 49 2z"/>
<path d="M1476 1879 c-28 -33 -32 -59 -14 -92 29 -55 102 -65 143 -21 54 58
14 143 -67 144 -28 0 -42 -7 -62 -31z m105 -30 c18 -34 -3 -69 -40 -69 -45 0
-66 44 -35 74 22 23 61 20 75 -5z"/>
<path d="M3442 1660 c-27 -26 -28 -44 -2 -70 41 -41 150 -16 150 35 0 51 -104
76 -148 35z m103 -35 c0 -12 -50 -19 -73 -10 -14 5 -14 7 -2 16 19 12 75 7 75
-6z"/>
<path d="M3632 1660 c-27 -26 -28 -44 -2 -70 41 -41 150 -16 150 35 0 51 -104
76 -148 35z m92 -26 c25 -10 8 -24 -30 -24 -32 0 -42 8 -27 23 8 9 36 9 57 1z"/>
<path d="M1485 1648 c-65 -37 -32 -98 53 -98 81 0 117 45 72 90 -23 23 -91 27
-125 8z m89 -34 c27 -10 7 -24 -34 -24 -60 0 -63 27 -3 29 12 1 28 -2 37 -5z"/>
<path d="M2660 1460 l0 -40 120 0 120 0 0 40 0 40 -120 0 -120 0 0 -40z m210
3 c0 -10 -25 -13 -90 -13 -65 0 -90 3 -90 13 0 9 25 12 90 12 65 0 90 -3 90
-12z"/>
<path d="M2970 1460 l0 -40 170 0 170 0 0 40 0 40 -170 0 -170 0 0 -40z m318
1 c3 -8 -42 -11 -142 -11 -110 0 -146 3 -146 13 0 16 283 14 288 -2z"/>
</g>
</svg>
